<svg width="654" height="575" viewBox="0 0 654 575" fill="none" xmlns="http://www.w3.org/2000/svg">
<path opacity="0.05" d="M345.785 520.527C339.994 515.395 333.894 510.219 328.102 504.512C323.461 508.804 319.129 512.83 314.531 516.811C257.195 566.272 198.09 586.888 163.079 566.847C129.172 547.691 118.518 491.108 132.09 419.881C133.549 412.183 135.273 404.441 137.306 396.743C131.206 394.929 125.415 393.292 119.623 391.346C47.478 366.704 0 326.667 0 286.629C0 246.592 44.2952 210.58 113.523 186.558C121.259 183.992 129.437 181.426 137.881 179.126C135.936 171.693 134.433 164.526 132.974 157.625C118.474 85.3363 128.597 27.6028 162.813 8.18131C198.444 -12.3904 257.504 9.59699 316.874 61.3581C320.322 64.4991 323.814 67.9498 327.572 71.3563C333.054 66.2245 338.27 61.0484 343.796 56.4916C399.938 8.09283 455.816 -12.125 490.032 7.34074C525.662 27.3373 536.095 89.0967 520.181 165.455C519.297 170.322 518.236 174.923 516.998 179.789C524.248 181.78 531.454 184.08 538.129 186.381C608.815 210.403 654.569 247.831 653.995 287.293C653.995 327.596 605.058 367.368 529.995 391.921C525.928 393.071 521.905 394.487 517.838 395.637C519.562 401.344 520.711 407.051 521.905 412.802C536.979 486.861 525.353 547.47 490.341 567.466C481.146 572.598 470.581 575.208 459.839 574.987C427.744 574.943 386.986 555.389 345.874 520.527H345.785ZM402.547 415.59C385.925 439.523 367.623 462.44 347.819 484.206C353.3 489.603 358.826 494.514 364.308 499.071C412.095 539.683 456.125 554.813 476.681 543.09C482.959 538.091 488.087 531.941 491.8 525.084C495.469 518.227 497.635 510.706 498.122 503.052C502.321 474.694 501.128 445.85 494.629 417.846C493.745 412.714 492.684 407.538 491.181 402.14C462.005 408.467 432.386 412.935 402.547 415.545V415.59ZM159.852 424.747C148.004 485.666 156.669 531.101 177.269 542.824C184.563 545.656 192.476 546.939 200.389 546.629C208.302 546.319 216.038 544.417 223.067 541.011C250.387 530.393 275.231 515.042 296.362 495.841C300.694 492.391 304.761 488.409 309.094 484.427C288.847 462.661 270.059 439.745 252.907 415.811C223.2 413.51 193.67 409.307 164.582 403.246C162.769 410.723 161.31 417.846 159.896 424.747H159.852ZM328.412 464.785C341.143 450.76 353.875 435.321 366.651 418.2C353.919 418.775 340.569 419.04 327.263 419.04C313.956 419.04 301.49 418.775 289.024 418.2C302.065 435.055 315.106 450.76 328.412 464.785ZM267.583 185.762C256.576 201.467 245.878 218.013 235.71 235.532C225.587 252.697 216.348 270.128 207.904 287.514C216.613 304.679 225.852 322.11 236.02 339.85C246.143 357.015 256.885 373.915 267.893 389.886C286.99 391.036 307.016 391.7 327.263 391.7C347.509 391.7 367.8 391.125 387.207 389.709C397.64 374.004 408.338 357.104 418.505 339.673C428.673 322.243 438.177 304.502 446.621 287.381C438.221 270.526 428.673 253.095 418.505 235.62C408.382 218.145 397.64 201.555 386.942 185.85C367.579 184.434 347.553 183.55 327.263 183.55C306.972 183.55 286.99 184.39 267.583 185.806V185.762ZM172.008 377.012C191.901 381.215 212.016 384.356 232.262 386.479C225.322 375.641 218.381 364.758 211.706 353.299C205.34 342.151 198.975 331.002 193.183 319.854C184.784 339.275 177.844 358.475 172.053 377.012H172.008ZM442.775 352.99C436.1 364.404 429.424 375.287 422.793 385.86C443.349 383.471 463.773 380.065 483.887 375.552C477.61 356.263 470.227 337.284 461.872 318.659C455.772 330.073 449.406 341.531 442.731 352.945L442.775 352.99ZM122.497 212.881C63.4367 233.453 27.806 263.447 27.806 286.939C28.9112 294.504 31.652 301.759 35.8517 308.351C40.0071 314.943 45.5772 320.694 52.1198 325.251C74.7094 342.814 100.659 356.396 128.597 365.288C133.814 367.102 139.295 368.429 144.821 370.155C153.707 342.018 164.449 314.456 176.96 287.514C164.405 261.058 153.795 233.851 145.087 206.112C137.262 208.059 129.747 210.315 122.497 212.881ZM477.875 286.939C490.739 313.527 501.747 340.824 510.809 368.695C514.567 367.545 518.368 366.394 521.816 365.244C586.403 344.097 626.454 311.802 626.675 286.629C626.675 263.182 589.63 232.877 529.066 212.306C522.966 210.315 516.335 208.324 509.704 206.289C500.951 233.762 490.297 260.704 477.875 286.939ZM442.554 221.198C449.229 232.612 455.595 243.805 461.386 254.953C469.431 236.726 476.372 218.101 482.251 199.211C462.579 194.787 442.686 191.336 422.572 188.903C429.513 199.476 436.188 210.049 442.554 221.198ZM172.318 198.945C178.109 217.261 185.049 235.841 193.183 254.953C198.975 243.805 205.34 232.656 211.706 221.508C218.072 210.359 224.747 199.52 231.688 188.903C210.822 191.424 191.15 194.831 172.318 198.901V198.945ZM362.009 77.4173C357.102 81.7086 352.151 86.2653 347.244 90.8663C367.358 112.367 385.836 135.107 402.547 158.952C432.033 161.606 461.253 166.163 490.032 172.666C491.181 168.375 491.977 164.084 492.949 159.793C506.521 94.0516 498.166 43.7062 476.151 31.142C471.332 28.6203 465.851 27.3816 460.281 27.5585C436.63 27.47 400.292 44.5025 362.009 77.3288V77.4173ZM176.65 31.8941C156.094 43.6177 147.96 90.5123 160.161 152.272C161.62 158.863 163.079 165.411 164.803 172.268C193.626 165.986 222.802 161.518 252.288 158.819C269.086 134.93 287.653 112.19 307.9 90.7336C304.717 87.5925 301.225 84.7169 298.042 81.8413C257.725 46.5818 219 28.0009 193.67 28.0009C187.702 27.824 181.822 29.1512 176.694 31.8941H176.65ZM366.076 156.519C354.14 140.548 341.232 125.152 327.484 110.509C314.443 124.489 301.402 139.973 288.714 156.519C301.446 155.944 314.177 155.678 327.218 155.678C340.259 155.678 353.3 155.899 366.076 156.519ZM269.352 288.045C269.086 280.701 270.368 273.357 273.154 266.5C275.939 259.598 280.182 253.316 285.62 247.963C291.057 242.61 297.6 238.275 304.806 235.266C312.055 232.258 319.88 230.577 327.793 230.311C343.84 230.798 359.003 237.169 369.966 248.008C380.93 258.846 386.809 273.224 386.323 288.089C386.853 302.91 380.974 317.332 370.01 328.215C359.047 339.054 343.884 345.425 327.837 345.911C319.88 345.69 312.055 344.009 304.806 340.956C297.556 337.904 291.013 333.612 285.62 328.215C280.182 322.862 275.939 316.536 273.154 309.634C270.368 302.733 269.086 295.433 269.352 288.045Z" fill="url(#paint0_linear_24_689)"/>
<defs>
<linearGradient id="paint0_linear_24_689" x1="327" y1="0" x2="327" y2="575" gradientUnits="userSpaceOnUse">
<stop stop-color="#81D8F7"/>
<stop offset="1" stop-color="#81D8F7" stop-opacity="0"/>
</linearGradient>
</defs>
</svg>
